PathFileType	4	(X/Y/Z)	 s04c0201.trc
DataRate	CameraRate	NumFrames	NumMarkers	Units	OrigDataRate	OrigDataStartFrame	OrigNumFrames
200	200	6	51	mm	200	501	2000
Frame#	Time	racr			lacr			c7			jug			rlel			rdr			llel			ldr			s2			lic			ric			lasi			rasi			rpsi			lpsi			rgt			lgt			rth1			rth2			rth3			rth4			rlfc			rmfc			rsh1			rsh2			rsh3			rsh4			rlmal			rmmal			rcal			rtoe			rmt5			lth1			lth2			lth4			lth3			llfc			lmfc			lsh1			lsh2			lsh3			lsh4			llmal			lmmal			lcal			ltoe			lmt1			lmt5			SBIKE			LBIKE			RBIKE			
		X1	Y1	Z1	X2	Y2	Z2	X3	Y3	Z3	X4	Y4	Z4	X5	Y5	Z5	X6	Y6	Z6	X7	Y7	Z7	X8	Y8	Z8	X9	Y9	Z9	X10	Y10	Z10	X11	Y11	Z11	X12	Y12	Z12	X13	Y13	Z13	X14	Y14	Z14	X15	Y15	Z15	X16	Y16	Z16	X17	Y17	Z17	X18	Y18	Z18	X19	Y19	Z19	X20	Y20	Z20	X21	Y21	Z21	X22	Y22	Z22	X23	Y23	Z23	X24	Y24	Z24	X25	Y25	Z25	X26	Y26	Z26	X27	Y27	Z27	X28	Y28	Z28	X29	Y29	Z29	X30	Y30	Z30	X31	Y31	Z31	X32	Y32	Z32	X33	Y33	Z33	X34	Y34	Z34	X35	Y35	Z35	X36	Y36	Z36	X37	Y37	Z37	X38	Y38	Z38	X39	Y39	Z39	X40	Y40	Z40	X41	Y41	Z41	X42	Y42	Z42	X43	Y43	Z43	X44	Y44	Z44	X45	Y45	Z45	X46	Y46	Z46	X47	Y47	Z47	X48	Y48	Z48	X49	Y49	Z49	X50	Y50	Z50	X51	Y51	Z51	
501	2.5050	544.731007	1382.320849	-125.218264	567.496841	1373.875608	-349.600064	513.902953	1430.606685	-254.372027	498.096900	1273.041381	-245.471297	450.617086	1102.696607	26.476417	686.075369	957.691547	-71.905236	498.553505	1147.521219	-539.159028	686.332734	950.234149	-452.976801	-60.202938	1200.871671	-302.924718	113.547938	1198.613895	-448.345503	81.209170	1212.972932	-129.569327	137.571807	1150.167338	-399.368041	124.933442	1160.070979	-168.257147	-35.162783	1248.201186	-259.337866	-27.845597	1244.107872	-335.105318	39.311951	1165.108523	-112.516629	69.009218	1104.691003	-476.183658	154.954065	1044.088938	-97.581762	231.584831	999.868483	-106.844234	277.422869	928.304084	-109.588894	254.214936	1026.394959	-121.852864	371.921186	814.076874	-131.313903	348.913641	785.238335	-240.846023	332.170533	683.045176	-94.714865	347.426598	600.002585	-110.240801	304.581328	525.599260	-111.699921	378.254943	596.375195	-134.960293	280.947503	375.456902	-110.995237	297.545373	381.138587	-196.836668	212.604202	340.930432	-142.428714	513.268876	325.044664	-150.803105	449.894940	302.198670	-90.840679	126.917513	1038.330422	-480.862349	204.809822	1000.012217	-480.204104	226.944475	1024.756127	-466.066884	255.097269	926.949990	-488.541890	344.097984	800.751324	-464.956238	367.388865	772.187417	-355.602925	277.756716	701.210293	-483.960519	232.862492	632.418399	-455.226832	155.132682	589.000584	-450.094885	253.555952	618.441040	-425.092337	46.274650	491.675692	-437.738512	46.328561	494.958837	-349.249527	-30.769692	519.622481	-392.397962	196.978293	315.686089	-405.434699	142.247904	330.012461	-358.743493	118.430649	336.886238	-463.636171	-178.137025	939.292199	-278.584084	-3.966087	85.830598	-483.770392	-15.774745	80.507486	-83.187694	
502	2.5100	545.297581	1383.324076	-126.091522	567.582040	1374.609391	-350.869235	514.661504	1431.098848	-255.482849	498.420206	1273.941314	-246.428083	451.518668	1103.717869	25.801553	686.585618	957.787838	-72.068447	498.701381	1147.322377	-539.179907	686.761464	950.193297	-452.604087	-59.251419	1200.855843	-302.639906	114.028182	1199.752642	-448.249768	82.368320	1212.869819	-129.319788	138.762149	1152.179189	-400.576190	126.350173	1160.339230	-168.215741	-34.358471	1247.915573	-258.860727	-27.225556	1244.225695	-334.572725	40.456596	1164.434893	-112.510574	70.539988	1105.920103	-476.227894	155.141910	1042.285097	-97.135668	231.301128	997.185969	-106.236043	276.168923	925.118929	-108.933816	254.202756	1023.418170	-121.054845	369.556258	809.786341	-130.497722	347.047457	781.218465	-240.290044	329.812583	678.807787	-94.118516	345.985597	595.449412	-109.712774	303.612572	520.796025	-111.298236	376.876631	592.016226	-134.380254	280.675599	370.490439	-110.945932	297.799986	376.147472	-196.668910	212.378645	336.983811	-142.363079	512.959560	318.111522	-150.555859	449.327317	295.561909	-90.925013	128.909811	1040.355533	-481.102474	207.191508	1002.810435	-480.420003	229.042171	1027.683859	-466.118593	258.185178	930.260164	-489.074232	348.152769	804.721724	-465.601157	380.335388	777.885954	-353.349592	281.471474	705.710152	-484.442948	236.096995	637.325854	-455.523480	158.084604	594.486663	-450.283298	256.668298	623.297338	-425.350004	48.482124	498.106228	-437.746879	48.658189	501.558523	-349.250452	-28.458596	526.487002	-392.404777	198.123480	321.465159	-405.128832	143.205996	336.096207	-358.462398	119.839367	343.014168	-463.394856	-178.093978	939.310369	-278.495116	-3.967586	85.849278	-483.760091	-15.773595	80.516720	-83.200770	
503	2.5150	545.954299	1384.215595	-126.845382	567.588795	1375.426248	-352.198601	515.380380	1431.571216	-256.640109	498.783524	1274.973737	-247.405710	452.319622	1104.601502	25.057971	686.751621	957.579180	-72.179933	498.824739	1147.117622	-539.180884	687.170843	950.339851	-452.422675	-58.442442	1200.820361	-302.312707	114.321371	1200.982371	-448.122856	83.556749	1212.768336	-129.085130	139.741786	1154.257171	-401.784866	127.851200	1160.736471	-168.290613	-33.469843	1247.732307	-258.234473	-26.657316	1244.330675	-334.090630	41.585627	1163.573864	-112.590868	72.084327	1107.432409	-476.350499	155.320895	1040.551034	-96.434336	230.790580	994.508551	-105.370113	274.640805	921.769974	-108.210142	254.217587	1020.342943	-120.234355	367.027128	805.385776	-129.582853	344.774648	776.939683	-239.645171	327.386912	674.629345	-93.518624	344.378216	590.856933	-109.090844	302.316000	515.949188	-110.863118	375.292474	587.649429	-133.803863	280.218046	365.593282	-110.926886	298.235355	371.509248	-196.960582	212.005090	332.869679	-142.387082	512.223909	310.216102	-151.262405	448.563097	289.225451	-90.839572	130.860107	1042.465707	-481.261689	209.496088	1005.662139	-480.594265	231.084872	1030.690668	-466.169675	261.195219	933.713821	-489.612991	352.163945	808.862593	-466.377656	383.646418	781.902121	-354.373388	285.218218	710.253961	-484.899281	239.385169	642.258214	-455.718910	161.095096	599.881000	-450.525297	259.861264	627.958697	-426.207617	50.827338	504.486184	-437.869875	51.140496	508.051953	-349.371038	-26.024270	533.360404	-392.600474	199.514746	327.136209	-404.993593	144.320193	342.284230	-358.172751	121.445778	349.159673	-463.307313	-178.065032	939.355842	-278.430848	-3.954877	85.806655	-483.687531	-15.753628	80.523825	-83.166039	
504	2.5200	546.403547	1385.288236	-127.733183	567.568578	1376.366849	-353.571233	516.060089	1432.024279	-257.841905	499.029073	1275.901498	-248.512293	453.178502	1105.635698	24.462678	687.090899	957.546884	-72.759273	498.884557	1146.921229	-539.181303	687.525542	950.477220	-452.337570	-57.223419	1201.899670	-305.975145	114.518824	1202.229097	-447.988642	84.592796	1212.643282	-128.868503	140.655848	1156.393881	-402.981624	128.696128	1160.459477	-168.083154	-32.677003	1247.494141	-257.607548	-26.046714	1244.467791	-333.555675	42.647950	1163.173570	-111.903299	73.618394	1108.950578	-476.443190	155.379832	1038.749150	-95.859359	230.306593	991.748846	-104.568557	273.081669	918.371334	-107.439239	253.972766	1017.062991	-119.500153	364.303581	800.940592	-128.634930	342.235895	772.530822	-238.813025	324.898793	670.513599	-92.917219	342.468225	586.265525	-108.511386	300.842522	511.151675	-110.484455	373.136228	583.305028	-132.848544	279.514310	360.634078	-110.912029	297.904489	366.585291	-196.850486	211.355662	328.802049	-142.428694	511.187635	303.104323	-150.874074	447.252009	282.000698	-91.589418	132.762934	1044.700628	-481.452545	211.712984	1008.653500	-480.852342	233.060603	1033.798227	-466.202570	264.138941	937.282150	-490.200475	356.252204	813.195985	-467.216778	386.680644	785.943383	-355.455510	288.975977	715.035692	-485.649991	242.777384	647.279002	-456.077301	164.222135	605.433375	-450.803564	263.181368	632.909430	-426.583412	53.264043	510.782257	-437.969968	53.450225	513.443352	-350.293160	-23.531656	540.082379	-392.674676	201.094179	332.791577	-404.837360	145.490248	348.546672	-357.875589	123.099678	355.095989	-463.213645	-178.030735	939.371381	-278.354167	-3.955996	85.896150	-483.765219	-15.741154	80.512777	-83.171921	
505	2.5250	546.810856	1386.387520	-128.712429	567.459109	1377.364476	-354.899067	516.701139	1432.458530	-259.086335	499.270405	1276.928590	-249.511064	453.989498	1106.713003	23.810284	687.334574	957.494456	-73.482391	498.896644	1146.749177	-539.216171	687.858448	950.611705	-452.290569	-56.814636	1200.838670	-301.556221	114.639798	1203.569076	-447.898047	85.777592	1212.587992	-128.520860	141.150861	1157.744391	-403.017442	130.134645	1160.819109	-167.994552	-31.942816	1247.247346	-256.938112	-25.571627	1244.606266	-333.026428	43.641895	1162.378114	-111.845467	75.057521	1110.597352	-476.555429	155.279881	1036.899753	-95.437062	229.739437	988.873341	-103.747856	271.426982	915.052905	-106.585475	253.872371	1013.963391	-118.666557	361.394096	796.451003	-127.658757	339.571921	768.197070	-237.890657	322.353500	666.464297	-92.316334	340.329608	581.642150	-107.885153	298.944571	506.392808	-109.983302	371.086716	578.860029	-132.143039	278.606022	355.672594	-110.917886	297.174106	361.814870	-196.719783	210.456889	324.828628	-142.377675	509.991549	296.120708	-150.926698	445.945613	275.488871	-91.671067	134.530373	1046.913120	-481.548832	213.846372	1011.737142	-481.031664	234.948261	1037.006038	-466.280917	266.952788	940.908915	-490.725029	360.076986	817.650433	-467.925958	389.437279	789.980682	-356.603292	292.722915	719.840259	-486.189005	246.154181	652.383818	-456.427471	167.334636	611.021592	-451.089352	266.427730	638.034791	-426.852442	55.836007	516.965945	-438.144503	56.059089	519.845154	-350.466070	-20.764515	546.708993	-392.933577	202.908701	338.480937	-404.767131	147.099228	354.508872	-357.689647	125.006759	361.365042	-463.441796	-178.010140	939.394410	-278.280628	-3.954980	85.951690	-483.749870	-15.740917	80.512878	-83.171471	
506	2.5300	547.153018	1387.348542	-129.694755	567.402370	1378.278013	-356.278216	517.304038	1432.874458	-260.371496	499.445001	1277.897081	-250.606174	454.846392	1107.866829	23.125432	687.534577	957.416863	-74.279365	498.864631	1146.615600	-539.261484	688.146934	950.779514	-452.221003	-56.170584	1200.868057	-301.138068	114.637767	1204.892182	-447.786441	86.989578	1212.570379	-128.137036	141.632634	1159.048583	-403.246352	131.601421	1161.254743	-167.910888	-31.195817	1247.123758	-256.207604	-25.221138	1244.777836	-332.394476	44.714599	1161.509521	-111.675358	76.317886	1112.260056	-476.616630	155.267374	1035.212240	-94.870932	228.973210	986.130530	-102.828200	269.699454	911.529726	-105.840541	253.497038	1010.917263	-117.697649	358.300549	792.021136	-126.630504	336.766633	763.806345	-237.025068	319.756305	662.485186	-91.717998	338.026856	577.119318	-107.184997	297.001711	501.479580	-109.870246	368.825204	574.428797	-131.472680	277.426858	350.785274	-110.841659	296.118954	357.147418	-196.586448	209.423984	320.703784	-142.442974	508.637303	288.941344	-150.980632	444.383297	268.969228	-91.800857	136.231957	1049.276347	-481.647456	215.849141	1014.835885	-481.246897	236.714012	1040.244030	-466.278405	269.722549	944.662779	-491.284940	363.688735	821.980263	-468.308253	392.575495	794.487274	-357.543669	296.472188	724.778901	-486.655120	249.511455	657.577105	-456.835867	170.495994	616.658423	-451.480831	269.749682	643.108959	-427.274120	58.714247	523.122643	-438.556451	59.095890	527.261074	-349.980149	-17.962807	553.274690	-393.102010	204.993521	344.275981	-404.603968	149.281376	360.678172	-357.570516	127.169092	367.036887	-463.022348	-178.006667	939.431690	-278.222795	-3.967172	85.963809	-483.733133	-15.747900	80.523392	-83.158327	
